<?xml version="1.0" encoding="utf-8"?>
<!-- Generator: Adobe Illustrator 18.1.0, SVG Export Plug-In . SVG Version: 6.00 Build 0)  -->
<!DOCTYPE svg PUBLIC "-//W3C//DTD SVG 1.1//EN" "http://www.w3.org/Graphics/SVG/1.1/DTD/svg11.dtd">
<svg version="1.1" id="Layer_1" xmlns="http://www.w3.org/2000/svg" xmlns:xlink="http://www.w3.org/1999/xlink" x="0px" y="0px"
	 viewBox="0 0 295.7 509.4" enable-background="new 0 0 295.7 509.4" xml:space="preserve">
<g>
	<path fill="#CDCCCA" d="M219.9,265.8c16.4-21.6,86-70.9,64.1-162.7C262,11.3,222.3-32.2,195.1,62.3c-27.2,94.4,6.1,186.6,6.1,186.6
		L219.9,265.8z"/>
	<path fill="#1B7479" d="M236.3,45.7c0,0,0,19.1-5.1,43.2c-5.1,24.1,19.5,80.5-5.2,140.5C226,229.5,318.1,163.4,236.3,45.7"/>
	<path fill="#CDCCCA" d="M87,265.8c-16.4-21.6-86-70.9-64.1-162.7c21.9-91.8,61.6-135.2,88.9-40.8c27.2,94.4-6.1,186.6-6.1,186.6
		L87,265.8z"/>
	<path fill="#1B7479" d="M70.6,45.7c0,0,0,19.1,5.1,43.2c5.1,24.1-19.5,80.5,5.2,140.5C80.8,229.5-11.2,163.4,70.6,45.7"/>
	<path fill="#A3A3A3" d="M57.6,397.2c0,45.5,41,82.5,91.6,82.5V314.7C98.6,314.7,57.6,351.7,57.6,397.2"/>
	<path fill="#CDCCCA" d="M240.8,397.2c0-45.5-41-82.5-91.6-82.5v164.9C199.8,479.7,240.8,442.7,240.8,397.2"/>
	<path fill="#A3A3A3" d="M148.8,275.2c-58.6,0-106.1,36.9-106.1,82.5s47.5,91,106.1,91c58.6,0,106.1-45.4,106.1-91
		S207.4,275.2,148.8,275.2"/>
	<rect x="92.7" y="459.5" fill="#A3A3A3" width="41.4" height="36.1"/>
	<path fill="#A3A3A3" d="M145.7,509.4c0-17.9-14.5-32.4-32.4-32.4C95.5,477,81,491.5,81,509.4H145.7z"/>
	<rect x="164.3" y="459.5" fill="#CDCCCA" width="41.4" height="36.1"/>
	<path fill="#CDCCCA" d="M217.4,509.4c0-17.9-14.5-32.4-32.4-32.4c-17.9,0-32.4,14.5-32.4,32.4H217.4z"/>
	<path fill="#4A1C12" d="M100.4,204.7c0.3-0.1,0.6-0.2,1-0.4C101,204.5,100.7,204.6,100.4,204.7"/>
	<path fill="#4A1C12" d="M197,204.3c0.3,0.1,0.6,0.2,0.9,0.4C197.6,204.6,197.3,204.4,197,204.3"/>
	<path fill="#CDCCCA" d="M292.4,373c-14.9-7.4-23.3-62.6-23.3-62.6c-8.5-57.3-35-92.3-66.8-104c-1.5-0.5-2.9-1.1-4.3-1.7
		c-0.3-0.1-0.6-0.2-0.9-0.4c-13.7-5.2-30.1-8.2-47.8-8.2v97.1v43.7c0,0,0.1,0,0.1,0h-0.1v93.4c0.1,0,0.2,0,0.3,0
		c35.1,0,57-6.8,71.6-18c6.7-5.1,13.1-10.7,20-15.1c0-0.1,0-0.1,0-0.2C266.4,380.9,292.4,373,292.4,373"/>
	<path fill="#A3A3A3" d="M101.4,204.3c-0.3,0.1-0.6,0.2-1,0.4c-1.4,0.6-2.8,1.2-4.3,1.7c-31.8,11.7-58.4,46.7-66.8,104
		c0,0-8.5,55.2-23.3,62.6c0,0,26.2,7.9,51.7,24.2c0,0,13.6,10,20.3,15.1c14.6,11.2,39.1,18,71.3,18v-93.4c-0.1,0-0.2,0-0.2,0
		c0.1,0,0.2,0,0.2,0v-43.7v-97.1C131.5,196.1,115,199.1,101.4,204.3"/>
	<path fill="#1B7479" d="M98.3,302.5c0,9.7-7.8,17.5-17.5,17.5c-9.7,0-17.5-7.8-17.5-17.5c0-9.7,7.8-17.5,17.5-17.5
		C90.4,284.9,98.3,292.8,98.3,302.5"/>
	<path fill="#1B7479" d="M235.1,302.5c0,9.7-7.8,17.5-17.5,17.5c-9.7,0-17.5-7.8-17.5-17.5c0-9.7,7.8-17.5,17.5-17.5
		C227.3,284.9,235.1,292.8,235.1,302.5"/>
	<path fill="#FFFFFF" d="M93.5,297.1c0,3-2.4,5.4-5.4,5.4c-3,0-5.4-2.4-5.4-5.4c0-3,2.4-5.4,5.4-5.4
		C91.1,291.7,93.5,294.1,93.5,297.1"/>
	<path fill="#FFFFFF" d="M231.4,297.1c0,3-2.4,5.4-5.4,5.4c-3,0-5.4-2.4-5.4-5.4c0-3,2.4-5.4,5.4-5.4
		C229,291.7,231.4,294.1,231.4,297.1"/>
	<path fill="#1B7479" d="M173.5,344.5l-24.6,2.8l-24.6-2.8c-2.3-0.3-4.4,1.4-4.7,3.7c-0.3,2.3,1.4,4.4,3.7,4.7l21,2.4v30.9
		c-1.4,1.6-4.6,4.8-7.9,3c-2.1-1.1-4.7-0.3-5.8,1.7c-1.1,2.1-0.3,4.6,1.7,5.8c2.1,1.1,4.1,1.6,6,1.6c4.1,0,7.7-2.1,10.4-4.5
		c2.6,2.4,6.2,4.5,10.3,4.5c1.9,0,4-0.5,6.1-1.6c2.1-1.1,2.9-3.6,1.8-5.7c-1.1-2.1-3.6-2.9-5.7-1.8c-3.5,1.8-6.6-1.3-8-2.9v-30.9
		l21-2.4c2.3-0.3,4-2.4,3.7-4.7C177.9,345.9,175.8,344.2,173.5,344.5"/>
</g>
</svg>
