<?xml version="1.0" encoding="utf-8"?>
<!-- Generator: Adobe Illustrator 18.1.0, SVG Export Plug-In . SVG Version: 6.00 Build 0)  -->
<!DOCTYPE svg PUBLIC "-//W3C//DTD SVG 1.1//EN" "http://www.w3.org/Graphics/SVG/1.1/DTD/svg11.dtd">
<svg version="1.1" id="Layer_1" xmlns="http://www.w3.org/2000/svg" xmlns:xlink="http://www.w3.org/1999/xlink" x="0px" y="0px"
	 viewBox="0 0 472.2 430.6" enable-background="new 0 0 472.2 430.6" xml:space="preserve">
<rect x="0" y="0" display="none" fill="#00747B" width="472.2" height="430.6"/>
<g>
	<path fill="#FFFFFF" d="M452.3,193.2c0,1.4-0.8,2.8-2.1,3.4l-0.1,0.1c-0.9,0.4-1.9,0.4-2.8,0.1c-14.1-5.5-42.6-10.4-80.6-13.9
		l2.7,46c0.1,1-0.3,2-1,2.7c-0.7,0.7-1.6,1.1-2.6,1.1h-19.8c-1,0-1.9-0.4-2.6-1.1c-0.7-0.7-1-1.7-1-2.7l2.5-47.7
		c-33-2.3-70.5-3.6-108.6-3.6c-38.2,0-75.7,1.2-108.7,3.6l2.7,45.7c0.1,1-0.3,2-1,2.7c-0.7,0.7-1.6,1.1-2.6,1.1h-19.8
		c-1,0-1.9-0.4-2.6-1.1c-0.7-0.7-1-1.7-1-2.7l2.3-44c-38.1,3.5-66.6,8.4-80.6,14c-1.8,0.7-3.9-0.1-4.6-1.9c-0.8-1.8,0-3.9,1.8-4.7
		l0.1-0.1c0.1,0,0.1,0,0.2-0.1c13.4-5.3,42.3-13.2,83.8-19.5l6.5-121.8c0.1-1.9,1.7-3.4,3.6-3.4h0c1.9,0,3.5,1.5,3.6,3.4l6.9,118.9
		c36.2-4.6,73.1-6.9,109.6-6.9c36.4,0,73.1,2.3,109.2,6.9l6.3-116.8c0.1-1.9,1.7-3.4,3.6-3.4c0,0,0,0,0,0c1.9,0,3.5,1.5,3.6,3.4
		l6.9,119.7c41.5,6.3,70.6,14.2,84.1,19.5C451.3,190.5,452.2,191.8,452.3,193.2z"/>
</g>
<g>
	<path fill="#FFFFFF" d="M34.6,334.8h6.3v43.3h20.7v5.3h-27V334.8z"/>
	<path fill="#FFFFFF" d="M82.8,334.8v48.5h-6.3v-48.5H82.8z"/>
	<path fill="#FFFFFF" d="M101.8,334.8h6.3v43.3h20.7v5.3h-27V334.8z"/>
	<path fill="#FFFFFF" d="M143.7,334.8h6.3v43.3h20.7v5.3h-27V334.8z"/>
	<path fill="#FFFFFF" d="M210.8,360.6H192v17.5h21v5.3h-27.3v-48.5h26.2v5.3H192v15.3h18.9V360.6z"/>
	<path fill="#FFFFFF" d="M229.1,335.5c2.7-0.6,7.1-1,11.4-1c6.3,0,10.3,1.1,13.3,3.5c2.5,1.9,4,4.8,4,8.6c0,4.7-3.1,8.8-8.2,10.7
		v0.1c4.6,1.2,10,5,10,12.2c0,4.2-1.7,7.3-4.1,9.7c-3.4,3.1-8.9,4.5-16.8,4.5c-4.3,0-7.6-0.3-9.7-0.6V335.5z M235.4,355.4h5.7
		c6.6,0,10.5-3.5,10.5-8.1c0-5.7-4.3-7.9-10.7-7.9c-2.9,0-4.5,0.2-5.5,0.4V355.4z M235.4,378.6c1.2,0.2,3,0.3,5.3,0.3
		c6.5,0,12.5-2.4,12.5-9.4c0-6.6-5.7-9.4-12.5-9.4h-5.2V378.6z"/>
	<path fill="#FFFFFF" d="M281,368.1l-5,15.3h-6.5l16.5-48.5h7.6l16.6,48.5h-6.7l-5.2-15.3H281z M296.9,363.2l-4.8-14
		c-1.1-3.2-1.8-6-2.5-8.9h-0.1c-0.7,2.9-1.5,5.8-2.4,8.8l-4.8,14H296.9z"/>
	<path fill="#FFFFFF" d="M348.9,360.6h-18.9l6,17.5h21l1.8,5.3h-27.3L315,334.8h26.2l1.8,5.3H323l5.3,15.3h18.9L348.9,360.6z"/>
	<path fill="#FFFFFF" d="M369.6,334.8h6.3v43.3h20.7v5.3h-27V334.8z"/>
	<path fill="#FFFFFF" d="M414.5,340.2h-14.8v-5.3h35.9v5.3h-14.8v43.2h-6.3V340.2z"/>
</g>
<g>
	<path fill="#FFFFFF" d="M47.3,296.1h-9.7v9h10.8v2.7h-14v-24.9h13.5v2.7H37.6v7.9h9.7V296.1z"/>
	<path fill="#FFFFFF" d="M56.3,283.2c1.6-0.3,4-0.5,6.2-0.5c3.4,0,5.7,0.6,7.2,2c1.3,1.1,2,2.8,2,4.7c0,3.3-2.1,5.5-4.7,6.4v0.1
		c1.9,0.7,3.1,2.4,3.7,5c0.8,3.5,1.4,5.9,1.9,6.8h-3.3c-0.4-0.7-1-2.8-1.7-6c-0.7-3.4-2.1-4.7-5-4.8h-3v10.8h-3.2V283.2z
		 M59.5,294.6h3.3c3.4,0,5.6-1.9,5.6-4.7c0-3.2-2.3-4.6-5.7-4.7c-1.6,0-2.7,0.1-3.2,0.3V294.6z"/>
	<path fill="#FFFFFF" d="M83.1,282.9v10.4h12.1v-10.4h3.3v24.9h-3.3v-11.7H83.1v11.7h-3.2v-24.9H83.1z"/>
	<path fill="#FFFFFF" d="M113.2,307.8l-8.1-24.9h3.5l3.9,12.3c1.1,3.4,2,6.4,2.7,9.3h0.1c0.7-2.9,1.7-6,2.8-9.3l4.2-12.3h3.4
		l-8.9,24.9H113.2z"/>
	<path fill="#FFFFFF" d="M145,296.1h-9.7v9h10.8v2.7h-14v-24.9h13.5v2.7h-10.2v7.9h9.7V296.1z"/>
	<path fill="#FFFFFF" d="M153.9,283.2c1.6-0.3,4-0.5,6.2-0.5c3.4,0,5.7,0.6,7.2,2c1.3,1.1,2,2.8,2,4.7c0,3.3-2.1,5.5-4.7,6.4v0.1
		c1.9,0.7,3.1,2.4,3.7,5c0.8,3.5,1.4,5.9,1.9,6.8h-3.3c-0.4-0.7-1-2.8-1.7-6c-0.7-3.4-2.1-4.7-5-4.8h-3v10.8h-3.2V283.2z
		 M157.2,294.6h3.3c3.4,0,5.6-1.9,5.6-4.7c0-3.2-2.3-4.6-5.7-4.7c-1.6,0-2.7,0.1-3.2,0.3V294.6z"/>
	<path fill="#FFFFFF" d="M183.6,307.8l-8.1-24.9h3.5l3.9,12.3c1.1,3.4,2,6.4,2.7,9.3h0.1c0.7-2.9,1.7-6,2.8-9.3l4.2-12.3h3.4
		l-8.9,24.9H183.6z"/>
	<path fill="#FFFFFF" d="M202,303.9c1.4,0.9,3.6,1.6,5.8,1.6c3.3,0,5.2-1.7,5.2-4.3c0-2.3-1.3-3.7-4.7-5c-4.1-1.4-6.6-3.6-6.6-7.1
		c0-3.9,3.2-6.8,8.1-6.8c2.6,0,4.4,0.6,5.5,1.2l-0.9,2.6c-0.8-0.4-2.5-1.2-4.7-1.2c-3.4,0-4.7,2-4.7,3.7c0,2.3,1.5,3.5,5,4.8
		c4.2,1.6,6.4,3.7,6.4,7.3c0,3.8-2.8,7.2-8.7,7.2c-2.4,0-5-0.7-6.4-1.6L202,303.9z"/>
	<path fill="#FFFFFF" d="M228.5,300l-2.6,7.8h-3.3l8.5-24.9h3.9l8.5,24.9H240l-2.7-7.8H228.5z M236.6,297.5l-2.4-7.2
		c-0.6-1.6-0.9-3.1-1.3-4.6h-0.1c-0.4,1.5-0.8,3-1.3,4.5l-2.4,7.2H236.6z"/>
	<path fill="#FFFFFF" d="M250.8,282.9h3.2v12h0.1c0.7-1,1.3-1.9,2-2.7l7.6-9.4h4l-9,10.6l9.7,14.4h-3.8l-8.2-12.2l-2.4,2.7v9.5h-3.2
		V282.9z"/>
	<path fill="#FFFFFF" d="M278.9,300l-2.6,7.8H273l8.5-24.9h3.9l8.5,24.9h-3.4l-2.7-7.8H278.9z M287.1,297.5l-2.4-7.2
		c-0.6-1.6-0.9-3.1-1.3-4.6h-0.1c-0.4,1.5-0.8,3-1.3,4.5l-2.4,7.2H287.1z"/>
	<path fill="#FFFFFF" d="M301.2,283.2c2-0.3,4.3-0.5,6.8-0.5c4.6,0,7.9,1.1,10.1,3.1c2.2,2,3.5,4.9,3.5,9c0,4.1-1.3,7.4-3.6,9.7
		c-2.3,2.3-6.2,3.6-11,3.6c-2.3,0-4.2-0.1-5.8-0.3V283.2z M304.5,305.3c0.8,0.1,2,0.2,3.3,0.2c6.9,0,10.6-3.8,10.6-10.6
		c0-5.9-3.3-9.6-10.1-9.6c-1.7,0-2.9,0.1-3.8,0.3V305.3z"/>
	<path fill="#FFFFFF" d="M342.5,296.1h-9.7v9h10.8v2.7h-14v-24.9H343v2.7h-10.2v7.9h9.7V296.1z"/>
	<path fill="#FFFFFF" d="M372.5,296.9c-0.2-3.5-0.4-7.7-0.4-10.8H372c-0.9,2.9-1.9,6.1-3.1,9.5l-4.4,12.1H362l-4-11.9
		c-1.2-3.5-2.2-6.7-2.9-9.7H355c-0.1,3.1-0.3,7.3-0.5,11l-0.7,10.7h-3.1l1.7-24.9h4.1l4.3,12.1c1,3.1,1.9,5.8,2.5,8.4h0.1
		c0.6-2.5,1.5-5.3,2.6-8.4l4.4-12.1h4.1l1.6,24.9h-3.1L372.5,296.9z"/>
	<path fill="#FFFFFF" d="M388.1,282.9v24.9h-3.2v-24.9H388.1z"/>
	<path fill="#FFFFFF" d="M410.4,296.1h-9.7v9h10.8v2.7h-14v-24.9h13.5v2.7h-10.2v7.9h9.7V296.1z"/>
	<path fill="#FFFFFF" d="M424.7,285.6h-7.6v-2.7h18.5v2.7H428v22.2h-3.3V285.6z"/>
</g>
</svg>
