<?xml version="1.0" encoding="utf-8"?>
<!-- Generator: Adobe Illustrator 18.1.0, SVG Export Plug-In . SVG Version: 6.00 Build 0)  -->
<!DOCTYPE svg PUBLIC "-//W3C//DTD SVG 1.1//EN" "http://www.w3.org/Graphics/SVG/1.1/DTD/svg11.dtd">
<svg version="1.1" id="Layer_1" xmlns="http://www.w3.org/2000/svg" xmlns:xlink="http://www.w3.org/1999/xlink" x="0px" y="0px"
	 viewBox="0 0 479.7 501" enable-background="new 0 0 479.7 501" xml:space="preserve">
<g id="orange_fox">
	<path fill="#F7F3CE" d="M461.5,313.3c-2.2-1.6-5-3.1-8.3-4.5c0.9,0.6,1.7,1,2.5,1.5C457.8,311.3,459.8,312.3,461.5,313.3"/>
	<path fill="#F7F3CE" d="M461.5,313.3c-1.7-1.1-3.7-2.1-5.8-3C459.2,312.3,461.5,313.3,461.5,313.3"/>
	<path fill="#F7F3CE" d="M113.4,308.8c-3.3,1.4-6.2,2.9-8.3,4.5c1.7-1.1,3.7-2.1,5.8-3C111.7,309.9,112.5,309.4,113.4,308.8"/>
	<path fill="#F7F3CE" d="M105,313.3c0,0,2.3-1,5.8-3C108.7,311.3,106.8,312.3,105,313.3"/>
	<path fill="#A3A3A3" d="M282.9,414.3c-44.9,0-84.1-21.5-106.1-53.6c1.5,28.5,14.2,54.1,33.8,72.3v33.6c-10.2,8-16.9,20.4-16.9,34.4
		H281c0-14-6.6-26.4-16.9-34.4v-6.8c6.2,1.1,12.6,1.8,19.1,1.8v-47.4C283.1,414.2,283,414.3,282.9,414.3"/>
	<path fill="#CDCCCA" d="M355.9,466.6V433c19.9-18.5,32.6-44.4,33.8-73.4c-21.8,32.6-61.3,54.5-106.5,54.7v47.4
		c6.5,0,12.9-0.7,19.1-1.8v6.8c-10.3,8-16.9,20.4-16.9,34.4h87.3C372.7,487,366.1,474.6,355.9,466.6"/>
	<path fill="#A3A3A3" d="M245.9,385C245.9,385,245.9,385,245.9,385c7.1,3.6,14.5,7.6,22.2,12.2c4.9,2.9,9.9,5.9,15.1,9.2v-46.5
		V248.2c-59,0-106.7,47.8-106.7,106.7c0,1.9,0.2,3.8,0.3,5.7c11.3,16.4,27,30,45.8,39.5c-1.2-7.1-2.3-14.5-3.4-22.4
		C227.5,380.3,236.4,382.7,245.9,385"/>
	<path fill="#CDCCCA" d="M283.2,248.2v111.6h0v46.5c5.2-3.3,10.2-6.3,15.1-9.2c7.7-4.5,15.1-8.5,22.3-12.1
		c9.7-2.3,18.7-4.7,27.3-7.3c-1.1,7.6-2.1,14.9-3.2,21.7c18.5-9.6,34.1-23.3,45.1-39.8c0.1-1.5,0.2-3.1,0.2-4.6
		C389.9,296,342.2,248.2,283.2,248.2"/>
	<path fill="#269098" d="M283.2,414.2v-7.9c-5.2-3.3-10.2-6.3-15.1-9.2c-7.7-4.5-15.1-8.5-22.3-12.1c0,0,0,0,0,0
		c-9.5-2.2-18.4-4.6-26.8-7.2c1.1,7.8,2.2,15.3,3.4,22.4c17.9,9,38.4,14.1,60.4,14.1C283,414.3,283.1,414.2,283.2,414.2"/>
	<path fill="#6EABB2" d="M320.6,385c-7.1,3.6-14.6,7.6-22.2,12.1c-4.9,2.9-9.9,5.9-15.1,9.2v-46.5h0v46.5v7.9
		c22.4-0.1,43.3-5.5,61.4-14.8c1.1-6.9,2.1-14.2,3.2-21.7C339.3,380.3,330.2,382.7,320.6,385"/>
	<path fill="#269098" d="M282.9,414.3c-21.9,0-42.5-5.2-60.4-14.1c6.1,36.3,15.8,61.6,60.7,61.6v-47.4
		C283.1,414.2,283,414.3,282.9,414.3"/>
	<path fill="#6EABB2" d="M344.6,399.4c-18.1,9.4-39,14.8-61.4,14.8v47.4C329.4,461.7,338.6,436.1,344.6,399.4"/>
	<path fill="#6EABB2" d="M336.6,151.6C364.1,40.1,454.8,1,454.8,1s64.9,169.3-59.1,209.7L336.6,151.6z"/>
	<path fill="#CDCCCA" d="M349.8,161.9C385.2,55.9,442,37.4,442,37.4s49,101.2-58.7,162.9L349.8,161.9z"/>
	<path fill="#269098" d="M229.8,151.6C202.3,40.1,111.6,1,111.6,1s-64.8,169.3,59.1,209.7L229.8,151.6z"/>
	<path fill="#A3A3A3" d="M216.6,161.9c-35.4-106-92.2-124.4-92.2-124.4s-49,101.2,58.7,162.9L216.6,161.9z"/>
	<path fill="#A3A3A3" d="M216.5,418.4c-36.2,29.8-83.7,9.8-111.8-21.2c-2.2-2.4-4.7-4.6-7.3-6.7c-11.9-0.6-24.8,0.8-35.5,6.7
		c0,0,19,14.4,26.2,30.1c0,0-21.3,4.3-38.1-6.2c0,0,2.1,25.2,19.9,47c5.6,1.7,11.6,3.2,18.1,4.5c109.9,21.7,141.5-40.8,141.5-40.8
		L216.5,418.4z"/>
	<path fill="#6EABB2" d="M88.3,427.2C81,411.5,62,397.1,62,397.1c10.6-5.9,23.5-7.2,35.4-6.7C66.4,365.9,8.9,365,8.9,365
		s-27,75.9,61.3,103c-17.8-21.8-19.9-47-19.9-47C66.9,431.6,88.3,427.2,88.3,427.2"/>
	<path fill="#CDCCCA" d="M381,309.1c-38.2,9.9-71.9,41.9-78.5,55.9c-5.8-3.2-12.4-5.2-19.4-5.2V287V122.7
		c75.4,0,136.5,61.1,136.5,136.5c0,1.8-0.2,3.5-0.3,5.2c8.6,34.8,42.2,48.9,42.2,48.9C447.1,304.6,418.5,299.4,381,309.1"/>
	<path fill="#6EABB2" d="M320.4,385c-3.5-8.6-9.9-15.6-17.9-20c6.6-10.8,28.7-39.3,78.5-55.9c36.7-12.3,68.3-4.5,80.4,4.2
		C461.5,313.3,424.3,360.7,320.4,385"/>
	<path fill="#1B7479" d="M245.7,385c7.1,3.6,14.6,7.6,22.3,12.1c4.9,2.9,9.9,5.9,15.1,9.2v-46.5c-7.1,0-13.7,2-19.5,5.2
		C255.6,369.4,249.2,376.4,245.7,385"/>
	<path fill="#1B7479" d="M302.5,365c-5.8-3.2-12.4-5.2-19.4-5.2v46.5c5.2-3.3,10.2-6.3,15.1-9.2c7.7-4.5,15.1-8.5,22.3-12.1
		C317,376.4,310.6,369.4,302.5,365"/>
	<path fill="#A3A3A3" d="M185.4,309.1c38.2,9.9,71.9,41.9,78.5,55.9c5.8-3.2,12.4-5.2,19.4-5.2V287V122.7
		c-75.4,0-136.5,61.1-136.5,136.5c0,1.8,0.2,3.5,0.3,5.2c-8.6,34.8-42.2,48.9-42.2,48.9C119.3,304.6,147.9,299.4,185.4,309.1"/>
	<path fill="#269098" d="M246,385c3.5-8.6,9.9-15.6,17.9-20c-6.6-10.8-28.7-39.3-78.5-55.9c-36.7-12.3-68.3-4.5-80.4,4.2
		C105,313.3,142.1,360.7,246,385"/>
	<path fill="#E96331" d="M283.1,122.7L283.1,122.7c0,0,0.1,0,0.1,0H283.1z"/>
	<path fill="#0B191C" d="M263.9,364.9C263.9,364.9,263.9,364.9,263.9,364.9c0,0,0,0.1,0.1,0.1C264,365,263.9,364.9,263.9,364.9"/>
	<path fill="#A94825" d="M283.4,122.7h-0.1C283.3,122.7,283.4,122.8,283.4,122.7L283.4,122.7z"/>
	<path fill="#A94825" d="M283.4,242V122.8c0,0-0.1,0-0.1,0c0,0-0.1,0-0.1,0V242C283.2,242,283.3,242,283.4,242"/>
	<path fill="#A94825" d="M283.1,359.8c0,0,0.1,0,0.1,0c0,0,0.1,0,0.1,0V287v-45c-0.1,0-0.2,0-0.3,0v45V359.8z"/>
	<path fill="#A94825" d="M263.9,364.9c0,0,0.1,0.1,0.1,0.1c5.7-3.2,12.2-5.1,19.2-5.2v0C276.1,359.8,269.7,361.7,263.9,364.9"/>
	<path fill="#A94825" d="M283.1,359.8L283.1,359.8c0,0,0.1,0,0.1,0C283.2,359.8,283.2,359.8,283.1,359.8"/>
	<path fill="#1B7479" d="M281.1,501c0-24.1-19.6-43.7-43.7-43.7c-24.1,0-43.7,19.6-43.7,43.7H281.1z"/>
	<path fill="#74B6BF" d="M372.9,501c0-24.1-19.6-43.7-43.7-43.7s-43.7,19.6-43.7,43.7H372.9z"/>
	<path id="eye_1_" fill="#1B7479" d="M177.1,242.8c0,0,58.5-16.9,57.1,42.5C234.2,285.3,177.1,306.1,177.1,242.8"/>
	<path id="eye" fill="#1B7479" d="M330,285.3c0,0,57.1,20.7,57.1-42.5C387.1,242.8,328.7,225.9,330,285.3"/>
	<path fill="#FFFFFF" d="M223.5,258.4c0,5.9-4.8,10.6-10.6,10.6c-5.9,0-10.6-4.8-10.6-10.6c0-5.9,4.8-10.6,10.6-10.6
		C218.8,247.7,223.5,252.5,223.5,258.4"/>
	<path fill="#FFFFFF" d="M376.9,258.4c0,5.9-4.8,10.6-10.6,10.6c-5.9,0-10.6-4.8-10.6-10.6c0-5.9,4.7-10.6,10.6-10.6
		C372.1,247.7,376.9,252.5,376.9,258.4"/>
</g>
</svg>
