<?xml version="1.0" encoding="utf-8"?>
<!-- Generator: Adobe Illustrator 18.1.0, SVG Export Plug-In . SVG Version: 6.00 Build 0)  -->
<!DOCTYPE svg PUBLIC "-//W3C//DTD SVG 1.1//EN" "http://www.w3.org/Graphics/SVG/1.1/DTD/svg11.dtd">
<svg version="1.1" id="Layer_1" xmlns="http://www.w3.org/2000/svg" xmlns:xlink="http://www.w3.org/1999/xlink" x="0px" y="0px"
	 viewBox="0 0 535.9 504.6" enable-background="new 0 0 535.9 504.6" xml:space="preserve">
<g>
	<path fill="#ACADAC" d="M192,199.8c-71.1,0-128.7,57.6-128.7,128.7c0,2.3,0.2,4.6,0.4,6.9c1.8,34.4,17.1,65.2,40.7,87.2v40.6
		c-12.3,9.6-20.3,24.6-20.3,41.5h105.2c0-16.9-8-31.9-20.3-41.5V455c7.5,1.4,15.1,2.2,23,2.2V400c27-0.1,52.2-6.6,74-17.9
		c22.3-11.6,41.1-28.1,54.4-48c0.1-1.9,0.3-3.7,0.3-5.6C320.7,257.4,263.1,199.8,192,199.8"/>
	<path fill="#CDCCCA" d="M279.6,463.1v-40.6c23.9-22.3,39.3-53.6,40.8-88.5c-13.3,19.9-32,36.5-54.4,48c-8.2,4.2-16.8,7.8-25.8,10.6
		c-0.1,0-0.2,0.1-0.3,0.1c-2.9,0.9-5.9,1.7-8.9,2.5c-0.4,0.1-0.7,0.2-1.1,0.2c-2.7,0.7-5.5,1.3-8.3,1.8c-0.8,0.1-1.6,0.2-2.4,0.4
		c-2.4,0.4-4.8,0.8-7.2,1.1c-1.5,0.2-3.1,0.3-4.7,0.4c-1.7,0.2-3.4,0.4-5.2,0.5c-3.3,0.2-6.7,0.3-10.1,0.3v57.2
		c8.4,0,15.7-0.7,22.3-2c0.3-0.1,0.5-0.1,0.8-0.1v8.1c-12.4,9.6-20.3,24.6-20.3,41.5h105.2C299.9,487.7,292,472.7,279.6,463.1"/>
	<path fill="#269098" d="M189.6,504.6c0-29.1-23.6-52.7-52.7-52.7c-29.1,0-52.7,23.6-52.7,52.7H189.6z"/>
	<path fill="#74B6BF" d="M300.1,504.6c0-29.1-23.6-52.7-52.7-52.7c-29.1,0-52.7,23.6-52.7,52.7H300.1z"/>
	<path fill="#269098" d="M192,457.1c0,0-15.3-19.8-38.8-33.7c-23.5-14-53.2-40-44.9-75.9c8.3-35.9,83.6,0,83.6,0L192,457.1z"/>
	<path fill="#74B6BF" d="M192,457.1c0,0,15.3-19.8,38.8-33.7c23.5-14,53.2-40,44.9-75.9c-8.3-35.9-83.6,0-83.6,0L192,457.1z"/>
	<path fill="#CDCCCA" d="M276.9,404.9c43.6,35.9,100.9,11.9,134.7-25.6c2.7-2.9,5.7-5.6,8.8-8.1c14.3-0.7,29.9,1,42.7,8.1
		c0,0-22.9,17.3-31.6,36.3c0,0,25.7,5.2,45.9-7.5c0,0-2.5,30.3-24,56.6c-6.7,2.1-14,3.9-21.8,5.5C299,496.3,260.9,421,260.9,421
		L276.9,404.9z"/>
	<path fill="#74B6BF" d="M431.5,415.6c8.7-19,31.6-36.3,31.6-36.3c-12.8-7.1-28.4-8.7-42.7-8.1c37.4-29.5,106.8-30.6,106.8-30.6
		s32.5,91.5-73.9,124.1c21.5-26.2,24-56.6,24-56.6C457.2,420.8,431.5,415.6,431.5,415.6"/>
	<path fill="#ACADAC" d="M192,250.5v-3.9V70.7c-80.7,0-146.2,65.4-146.2,146.2c0,1.9,0.2,3.8,0.3,5.6c0,0-30.8,38.4-39.3,97.5
		C38.6,279,109.5,250.5,192,250.5"/>
	<path fill="#CDCCCA" d="M377.3,320.1c-8.5-59.2-39.4-97.6-39.4-97.6c0.1-1.9,0.3-3.7,0.3-5.6c0-80.7-65.5-146.2-146.2-146.2v175.9
		v3.9C274.6,250.5,345.6,279.1,377.3,320.1"/>
	<path fill="#269098" d="M44.5,317.2c29,11.3,88.6,51.2,147.5,51.2v-43.7v-74C109.5,250.5,38.6,279,6.8,320c0,0.2-0.1,0.4-0.1,0.6
		C6.7,320.6,20.1,307.7,44.5,317.2"/>
	<path fill="#74B6BF" d="M192.1,368.3c58.9,0,118.4-39.9,147.5-51.2c24.4-9.5,37.8,3.4,37.8,3.4c0-0.2-0.1-0.3-0.1-0.5
		c-31.8-41-102.7-69.5-185.2-69.6v74V368.3z"/>
	<path fill="#ACADAC" d="M156.8,92.8L66.3,4.6c0,0-46.8,83.9,5.7,132.8l61.1-32.1L156.8,92.8z"/>
	<path fill="#269098" d="M76,52.6c0,0-19.1,39.6,18.5,73l38.6-20.3L76,52.6z"/>
	<path fill="#CDCCCA" d="M227.3,92.8l90.5-88.3c0,0,46.8,83.9-5.7,132.8L251,105.3L227.3,92.8z"/>
	<path fill="#74B6BF" d="M308,52.6c0,0,19.1,39.6-18.5,73L251,105.3L308,52.6z"/>
	<path fill="#269098" d="M106.8,187c-11.6,0-20.7,2.5-21.7,2.8l-8.4,2.4v8.7c0,54.1,35.7,60,51.1,60c13.1,0,23.7-3.7,24.9-4.1
		l7.5-2.7l0.2-8c0.4-19.3-4.5-34.3-14.5-44.6C136.6,192,123.1,187,106.8,187"/>
	<path fill="#01757C" d="M124.9,245c-11.5,0-30.7-4.8-30.7-36.7v-3l2.8-0.8c0.2-0.1,6.1-1.8,13.6-1.8c9.9,0,18.1,3,23.6,8.7
		c6.1,6.2,9,15.4,8.7,27.4l-0.1,2.7l-2.5,0.9C140.1,242.6,133.2,245,124.9,245"/>
	<path fill="#FFFFFF" d="M131.4,219.5c0,4.2-3.4,7.6-7.6,7.6c-4.2,0-7.6-3.4-7.6-7.6c0-4.2,3.4-7.6,7.6-7.6
		C128,211.9,131.4,215.3,131.4,219.5"/>
	<path fill="#74B6BF" d="M277.2,187c-16.2,0-29.7,5-39,14.5c-10.1,10.3-15,25.3-14.5,44.6l0.2,8l7.5,2.7c1.2,0.4,11.8,4.1,24.9,4.1
		c15.4,0,51.1-5.8,51.1-60v-8.7l-8.4-2.4C297.9,189.5,288.9,187,277.2,187"/>
	<path fill="#01757C" d="M259.2,245c11.5,0,30.7-4.8,30.7-36.7v-3l-2.8-0.8c-0.2-0.1-6.1-1.8-13.6-1.8c-9.9,0-18.1,3-23.6,8.7
		c-6,6.2-9,15.4-8.7,27.4l0.1,2.7l2.5,0.9C244,242.6,250.9,245,259.2,245"/>
	<path fill="#FFFFFF" d="M270.2,219.5c0,4.2,3.4,7.6,7.6,7.6c4.2,0,7.6-3.4,7.6-7.6c0-4.2-3.4-7.6-7.6-7.6
		C273.6,211.9,270.2,215.3,270.2,219.5"/>
	<path fill="#01757C" d="M164.7,326.5c0,9.3,12.3,16.8,27.4,16.8c15.1,0,27.4-7.5,27.4-16.8c0-9.3-12.3-16.8-27.4-16.8
		C176.9,309.7,164.7,317.2,164.7,326.5"/>
</g>
</svg>
